<svg preserveAspectRatio="none" overflow="visible" style="display: block;" width="8" height="8" viewBox="0 0 8 8" fill="none" xmlns="http://www.w3.org/2000/svg">
<g id="arrow-up-right-from-square" clip-path="url(#clip0_0_579)">
<path id="Vector" d="M5 0C4.72344 0 4.5 0.223437 4.5 0.5C4.5 0.776563 4.72344 1 5 1H6.29219L3.14531 4.14687C2.95 4.34219 2.95 4.65938 3.14531 4.85469C3.34063 5.05 3.65781 5.05 3.85313 4.85469L7 1.70781V3C7 3.27656 7.22344 3.5 7.5 3.5C7.77656 3.5 8 3.27656 8 3V0.5C8 0.223437 7.77656 0 7.5 0H5ZM1.25 1.5C0.559375 1.5 0 2.05937 0 2.75V6.75C0 7.44063 0.559375 8 1.25 8H5.25C5.94063 8 6.5 7.44063 6.5 6.75V5.5C6.5 5.22344 6.27656 5 6 5C5.72344 5 5.5 5.22344 5.5 5.5V6.75C5.5 6.8875 5.3875 7 5.25 7H1.25C1.1125 7 1 6.8875 1 6.75V2.75C1 2.6125 1.1125 2.5 1.25 2.5H2.5C2.77656 2.5 3 2.27656 3 2C3 1.72344 2.77656 1.5 2.5 1.5H1.25Z" fill="#F8F8F8"/>
</g>
<defs>
<clipPath id="clip0_0_579">
<rect width="8" height="8" fill="white"/>
</clipPath>
</defs>
</svg>
